<?xml version="1.0" encoding="UTF-8"?><svg id="Layer_1" xmlns="http://www.w3.org/2000/svg" xmlns:xlink="http://www.w3.org/1999/xlink" viewBox="0 0 474.87 280.61"><defs><style>.cls-1{fill:url(#linear-gradient);}.cls-1,.cls-2,.cls-3,.cls-4,.cls-5,.cls-6,.cls-7,.cls-8,.cls-9,.cls-10,.cls-11,.cls-12,.cls-13,.cls-14{stroke-width:0px;}.cls-2{fill:url(#linear-gradient-11);}.cls-3{fill:url(#linear-gradient-12);}.cls-4{fill:url(#linear-gradient-10);}.cls-5{fill:url(#linear-gradient-4);}.cls-6{fill:url(#linear-gradient-2);}.cls-7{fill:url(#linear-gradient-3);}.cls-8{fill:url(#linear-gradient-8);}.cls-9{fill:url(#linear-gradient-9);}.cls-10{fill:url(#linear-gradient-7);}.cls-11{fill:url(#linear-gradient-5);}.cls-12{fill:url(#linear-gradient-6);}.cls-13{fill:#4a2d0d;}.cls-14{fill:#e2d271;}</style><linearGradient id="linear-gradient" x1="89.48" y1="157.93" x2="89.48" y2="41.11" gradientUnits="userSpaceOnUse"><stop offset="0" stop-color="#ee7402"/><stop offset=".55" stop-color="#f3dc4c"/><stop offset="1" stop-color="#f5f088"/></linearGradient><linearGradient id="linear-gradient-2" x1="222.24" y1="170.97" x2="222.24" y2="58.24" xlink:href="#linear-gradient"/><linearGradient id="linear-gradient-3" x1="356.35" y1="153.54" x2="356.35" y2="41.2" xlink:href="#linear-gradient"/><linearGradient id="linear-gradient-4" x1="168.2" y1="147.24" x2="168.2" y2="80.85" xlink:href="#linear-gradient"/><linearGradient id="linear-gradient-5" x1="174.13" y1="120.25" x2="174.13" y2="53.25" xlink:href="#linear-gradient"/><linearGradient id="linear-gradient-6" x1="296.25" y1="171.49" x2="296.25" y2="60.17" xlink:href="#linear-gradient"/><linearGradient id="linear-gradient-7" x1="410.15" y1="151.97" x2="410.15" y2="67.52" xlink:href="#linear-gradient"/><linearGradient id="linear-gradient-8" x1="128.48" y1="260.33" x2="128.48" y2="152.05" xlink:href="#linear-gradient"/><linearGradient id="linear-gradient-9" x1="370.91" y1="257.74" x2="370.91" y2="152.91" xlink:href="#linear-gradient"/><linearGradient id="linear-gradient-10" x1="223.61" y1="254.7" x2="223.61" y2="177.58" xlink:href="#linear-gradient"/><linearGradient id="linear-gradient-11" x1="296.25" y1="253.99" x2="296.25" y2="177.29" xlink:href="#linear-gradient"/><linearGradient id="linear-gradient-12" x1="237.43" y1="280.61" x2="237.43" y2="0" gradientUnits="userSpaceOnUse"><stop offset=".01" stop-color="#cf7d2c"/><stop offset=".05" stop-color="#d38930"/><stop offset=".2" stop-color="#e1ac3c"/><stop offset=".33" stop-color="#eac644"/><stop offset=".46" stop-color="#f0d64a"/><stop offset=".55" stop-color="#f3dc4c"/><stop offset="1" stop-color="#f5f088"/></linearGradient></defs><path class="cls-13" d="m466.94,158.4c-2.92-1.25-6.24-1.91-9.39-1.93-2.4-.02-4.71.33-6.97.93,7.56-8.33,11.24-20.36,3.77-33.57.41-.47.83-.98,1.27-1.47,10.98-12.32,13.27-29.54,5.4-44.22-6.31-11.77-15.94-18.67-27.28-22.74.6,0,1.21,0,1.81-.03,3.83-.17,8.03-2.23,11.16-4.74,1.86-1.49,2.78-5.55,2.66-8.38-.15-3.59-3.15-5.59-6.4-6.27-1.74-.36-3.64-.47-5.37-.12-9.74,1.99-17.03,8.06-23.28,15.78-1.52-.02-3.05.02-4.57.12,2.67-1.87,5.03-4.14,7.03-6.92,1.88-2.62,3.29-6.08,3.75-9.35.99-6.98-4.76-12.01-10.84-9.33-3.01,1.32-6.03,4.05-7.76,7.01-3.63,6.23-4.53,13.14-3.49,20.54-2.53.7-5.05,1.55-7.57,2.59-.19-1.37-.37-2.43-.48-3.51-1.06-10.29-5.84-17.87-14.18-23.05-13.89-8.63-33.03-7.37-45.21,3.89-4.9,4.53-8.66,10.47-13.41,16.36-17.54-6.22-35.11-3.16-51.22,7.35-19.28-18.01-40.29-16.09-61.91-8.01-7.99-13.79-19.84-19.36-34.21-14.99-5.03,1.53-8.84,1.95-12.72-2.11-1.13-1.18-2.96-1.73-4.56-2.23-12.14-3.8-23.18-2.8-33.19,2.79,1.39-3.86,2.69-7.75,3.59-11.74.9-4,.21-8.91-1.18-12.83-.83-2.33-4.21-4.4-6.78-5.06-3.26-.83-5.87,1.71-7.38,4.88-.8,1.69-1.42,3.63-1.58,5.51-.77,9.07,1.64,17.12,5.61,24.63-1.31,1.11-2.61,2.28-3.88,3.57-.05.06-.12.11-.18.16-.34-6.93-2.08-13.12-5.77-18.5-1.83-2.67-4.54-5.07-7.34-6.44-5.98-2.94-12.06,1.61-11.34,8.62.36,3.47,1.96,7.34,4.14,9.93,2.45,2.92,5.29,5.08,8.46,6.61-4.7.08-9.31,1.27-13.86,3.55-8.08-13.68-20.12-17.88-34.26-16.23-4.69.55-9.39,2.13-13.83,3.95C11.01,42.94.67,61.51,3.43,88.02c1.97,18.93,8.77,35.94,17.78,52.06,4.87,8.71,10.41,16.74,17.64,23.01-3.08-1.35-6.29-2.33-9.72-2.78-5.36-.7-10.63-.21-15.25,3.25-6.45,4.84-6.47,13.53.31,17.81,2.87,1.81,6.52,2.84,9.87,2.99,9.36.42,17.53-3.25,25.67-8.04,0,1.82-.05,3.65-.09,5.47-6.79,2.44-13.61,4.77-20.28,7.55-2.54,1.06-4.8,3.29-6.77,5.42-3.58,3.87-4.33,8.98-2.37,12.99,2.08,4.26,6.49,6.52,11.56,5.75,5.87-.89,10.28-4.37,13.72-9.36,1.99-2.9,3.43-6,4.51-9.25.05.4.08.8.14,1.2,2.75,18.86,9.25,36.45,18.28,52.87,2.68,4.87,5.94,9.49,9.51,13.65,16.17,18.8,43.37,20.08,57.01,3.02.13-.17.46-.16.89-.3,7.57,6.7,16.39,9.54,26.27,8.82,9.97-.72,18.04-5.4,24.31-13.57,20.35,16.96,53.56,15.88,72.55-2.33,23.47,18.85,46.99,18.15,70.62,1.04,17.52,16.97,38.13,20.74,60.55,16.15,10.16-2.08,18.46-8.04,23.41-17.74,3.88-7.6,7.14-15.83,9.13-24.2,4.34-18.33,5.8-37.1,5.58-55.98,1.18,4.71,3.01,9,5.98,12.7,2.37,2.96,6.05,5.11,9.53,6.55,3.47,1.43,6.97-.07,9.27-3.43,2.21-3.23,2.27-6.98.35-10.21-1.63-2.75-3.83-5.28-6.22-7.29-4.34-3.63-9.35-5.58-14.76-7.12,2-.6,3.97-1.39,5.88-2.31,6.27,4.44,12.38,7.96,19.49,9.05,2.38.37,4.94.16,7.3-.38,3.71-.85,6.25-3.34,6.73-7.6.48-4.26-1.34-7.56-4.85-9.06Z"/><path class="cls-14" d="m362.55,218.44c0-.05,0-.1,0-.15,0,.02-.01.05-.02.07,0,.03.02.05.03.08Z"/><path class="cls-14" d="m210.28,174.32c-1.41-.35-3.08-.62-4.66-1.18-3.61-1.28-6.37-3.71-8.04-7.42-.69-1.54-1.28-3.13-1.92-4.7-.08-.2-.19-.39-.38-.76-.22,9.54,7.4,16.58,15.01,14.06Z"/><path class="cls-14" d="m202.32,176.84c-2.68-1.07-4.5-2.93-6.48-4.64.39,2.86,3.91,5.38,6.48,4.64Z"/><path class="cls-14" d="m281.73,176c-1.67-.22-3.63-.33-5.51-.77-4.32-1.01-7.77-3.48-10.11-7.55-.97-1.69-1.83-3.46-2.74-5.19-.12-.22-.27-.42-.53-.83.8,11.05,10.38,18.22,18.89,14.33Z"/><path class="cls-14" d="m273.7,179.82c-3.33-.9-5.89-3.09-8.59-5.01,1.16,3.86,5.82,6.58,8.59,5.01Z"/><path class="cls-14" d="m327.15,152.91c-2.73,6.27-7.33,10.55-12.26,14.53,6.02-1.54,12.05-8.74,12.26-14.53Z"/><path class="cls-14" d="m259.15,142.01c-.95,6.84-4.22,12.36-7.88,17.68,5.36-3.32,9.22-12.07,7.88-17.68Z"/><path class="cls-1" d="m57.23,152.13c10.03,9.25,26.7,8.51,30.83-10.04,1.98-8.92,3.78-17.88,5.84-27.64.54,1.27.81,1.85,1.04,2.45,3.11,8.09,5.72,16.46,9.44,24.21,6.19,12.88,21.14,14.34,29.58,2.93,2.97-4.02,5.44-9.03,6.53-13.99,3.35-15.26,6.18-30.68,8.73-46.12,1.76-10.67,2.76-21.48,4.03-32.24.42-3.6-.63-6.6-3.7-8.52-9.64-6.02-23.91,1.88-24.76,13.59-1.04,14.28-2.19,28.55-3.4,42.81-.24,2.78-.97,5.52-1.48,8.28-.33.01-.65.03-.98.04-1.52-5.14-3.22-10.22-4.52-15.42-1.99-7.92-3.67-15.92-5.56-23.87-1.08-4.56-4-7.05-8.24-7.7-8.08-1.25-15.05,3.31-17.44,11.66-2.73,9.56-5.19,19.22-7.81,28.82-1.07,3.91-2.25,7.79-3.37,11.68-1.18-1.61-1.71-3.13-1.9-4.7-1.93-15.98-3.92-31.96-5.65-47.96-.85-7.84-5.48-12.48-12.61-10.86-5.25,1.19-10.56,3.04-15.28,5.74-9.28,5.3-12.3,12.98-10.4,24.08,2.74,16.08,7.25,31.58,13.76,46.38,4.34,9.87,9.46,19.17,17.32,26.41Z"/><path class="cls-6" d="m188.87,113.3c4.76,17.29,19.6,24.05,32.28,21.29,4.94-1.08,7.43,5.89,2.93,8.18-.06.03-.12.06-.18.09-4.38,2.17-9.25,3.39-14.01,4.41-5.94,1.27-10.01,4.78-10.51,9.99-.5,5.27,3.04,10.13,8.83,12.12,13.16,4.53,30.82-.96,39.71-12.27,6.89-8.76,9.16-19.18,9.28-30.26.17-15.13.11-30.27.08-45.4,0-4.48-2.63-7.22-6.88-7.25-1.27,0-5.91,1.87-9.79,3.35-.29.11-.56.24-.81.41-.68.43-1.35.9-2,1.39-.89.68-1.49,1.68-1.68,2.79-.51,3.03-1,5.94-1.39,8.86-.49,3.7-.33,7.55-1.23,11.12-1.6,6.41-6.81,10.18-11.75,9.19-4.76-.96-7.99-6.24-7.84-12.81.25-10.98,8.11-19.17,17.86-20.25.27-.03.54-.08.81-.16,4.64-1.42,9.11-3.2,13.01-6.38.51-.41.9-.95,1.18-1.55,2.47-5.27.49-8.59-6.19-10.52-9.13-2.65-18.02-1.27-26.66,2.28-21,8.63-31.02,29.72-25.06,51.4Z"/><path class="cls-7" d="m338.55,139.57c.25,8.85,4.66,13.36,12.55,13.91,10,.7,15.5-4.71,15.29-15.49-.39-19.95,1.22-39.72,4.21-59.38,1.27-8.37,2.47-16.75,3.58-25.14.54-4.05-.68-7.43-4.07-9.63-11.27-7.31-28.08,1.42-29.14,15.32-1.03,13.44-1.7,26.91-2.52,40.29,0,2.18,0,4.26,0,6.34,0,11.26-.23,22.53.09,33.78Z"/><path class="cls-5" d="m155.31,136.39c.73,7.48,5.54,10.93,12.49,10.84,10.28-.12,15.76-6.69,14.57-17.72-1.37-12.71-2.5-25.4-.45-38.17.56-3.47-1.04-6.21-3.68-8.17-8.19-6.04-22.34.39-23.82,10.88-.42,3.01-.62,6.09-.52,9.13.33,11.08.35,22.2,1.42,33.2Z"/><path class="cls-11" d="m173.73,75.75c4.87-.18,10.14-2.33,13.8-7.9,5.39-8.19,1.8-18.1-7.29-20.44-5.53-1.43-10.55-.01-15.16,3.17-5.56,3.84-8.03,10.22-6.37,15.62,1.72,5.59,7.48,9.59,15.02,9.54Z"/><path class="cls-12" d="m275.08,131.91c9.58,5.59,21.8,4.78,29.97-2.58-.04.13-.08.26-.12.39-2.09,7.07-5.68,12-11.48,14.19-4.55,1.72-9.5,2.44-14.34,2.97-6.03.66-10.39,3.74-11.34,8.88-.1.52-.14,1.04-.16,1.56-.15,4.65,2.85,9.09,7.88,11.4,12.71,5.84,30.76,2.16,40.61-8.19,7.63-8.02,10.8-18.16,11.9-29.18,1.5-15.05,2.77-30.12,4.07-45.19.38-4.46-1.99-7.46-6.21-7.92-1.25-.14-5.93,1.23-9.89,2.3-1.28.53-3.12,1.32-3.75,1.8s-.87,1.06-1.14,1.82c-.78,3.01-1.53,5.87-2.19,8.76-.03.15-.07.29-.1.44-.23,1.01-.4,2.04-.57,3.07-.43,2.68-.76,5.38-1.63,7.88-.31.9-.7,1.73-1.15,2.5-1.84,3.21-4.7,5.25-7.67,5.71-1.23.19-2.48.11-3.69-.26-4.66-1.43-7.41-7.02-6.68-13.55,1-8.96,6.94-15.52,14.47-17.62.58-.23,1.22-.47,1.95-.73,4.4-1.54,10.79-3.27,16.07-4.44,0,0,.8-.21,2.15-1.17,1.36-.96,2.16-4.27,1.88-6.01-.39-2.44-2.55-4.39-6.55-6-8.86-3.56-17.83-3.09-26.74-.43-21.67,6.46-33.5,26.45-29.46,48.63,1.83,10.08,7.23,17.09,13.91,20.98Z"/><path class="cls-10" d="m420.68,99.29c-.26.19-.53.37-.79.56-.17.11-.35.21-.52.31-5.77,3.36-12.59,3.46-16.29,6.04-2.26,1.58-3.35,4.08-2.34,8.81,1.02,4.77,7.86,6.88,16.35,5.94.37-.04.73-.08,1.1-.13,1.23-.17,2.48-.4,3.75-.7,1.54-.36,3.02-.8,4.42-1.3,4.06-1.3,7.97-3.1,11.66-5.64,3.46-2.38,6.8-5.84,8.78-9.65,5.44-10.44,1.46-22.62-8.97-29.63-15.52-10.43-39.04-7.82-53.26,5.9-21.83,21.06-16.44,57.34,10.27,68.22,12.52,5.1,25.42,5.06,38.16,1.04,3.31-1.04,6.53-3.44,9.04-6.06,3.08-3.21,3.68-7.71,1.8-12-1.9-4.35-5.53-6.08-9.87-6.02-1.66.03-3.32.52-4.99.74-4.74.61-9.48,1.5-14.24,1.7-2.7.11-5.24-.53-7.78-2.07-5.15-1.73-8.98-8.16-8.98-15.85,0-.83.06-1.65.15-2.44-.01,0-.02,0-.03,0,.02-.08.04-.16.06-.24.39-3.31,1.49-6.27,3.09-8.59,2.09-3.85,5.01-6.8,9.12-8.68,2.28-1.05,5.12-1.64,7.5-1.2,2.09.39,4.66,2.06,5.64,3.98,1.42,2.79-.58,5.28-2.85,6.96Z"/><path class="cls-8" d="m171.71,152.51c-.38.06-.77.1-1.15.18-7.47,1.56-10.36,5.31-10.48,13.47-.14,10.01-.15,20.02-.56,30.02-.23,5.71-1.13,11.38-1.72,17.07-1.63-1.53-2.38-2.99-2.86-4.55-3.35-10.95-6.61-21.94-9.97-32.89-1.84-6-5.28-8.46-11.11-8.21-8.51.36-12.95,4.37-14.93,13.38-2.58,11.74-5.19,23.48-7.79,35.22-.38.03-.76.07-1.14.1-.57-2.24-1.27-4.46-1.67-6.73-2.2-12.56-4.47-25.11-6.41-37.72-1.43-9.29-5.84-13.2-14.49-11.84-2.55.4-5.09,1.09-7.53,1.98-10.19,3.72-13.93,10.73-11.38,21.94,4.29,18.82,10.41,36.96,18.51,54.29,3.21,6.87,7.03,13.34,13,17.93,11.14,8.57,24.29,3.49,27.55-10.71,1.08-4.72,1.71-9.55,2.57-14.33.69-3.79,1.42-7.57,2.14-11.36,1.29,1.34,1.81,2.59,2.31,3.85,2.91,7.27,5.38,14.8,8.83,21.77,7.22,14.59,23.63,14.72,31.41.4,1.87-3.44,3.29-7.28,4.31-11.12,5.67-21.21,8.21-43.01,9.94-64.92,1.14-14.52-3.88-19.28-17.37-17.22Z"/><path class="cls-9" d="m403.95,157.35c-4.01-5.12-13.97-5.82-21.12-2.03-4.92,2.61-6.35,6.78-5.31,15.06.7,5.62,1.29,11.27,2.04,17.9l2.04,27.36h0c.48,3.77.06,7.52-1.41,11.18-1.54,3.87-4.25,6.32-8.22,6.73-4.01.41-7.25-1.46-9.08-5.14-1.54-3.1-3.36-6.37-3.5-9.97,0-.03-.02-.05-.03-.08,0-.02.01-.05.02-.07,0-.09-.02-.18-.02-.28.11-4.17,1.24-5.49,2.22-7.85,1.2-2.91,3.34-5.06,5.77-6.17.27-.02.54-.05.81-.08,1.27-.15,2.47-.39,3.57-.75,3.52-1.13,5.91-3.43,5.91-7.68s-.79-7.74-2.27-10.11c-1.01-1.62-2.37-2.49-3.99-2.77-2.36-.41-4.23-.38-6.8-.35-1.79.02-3.58.17-5.08.59-9.05,1.43-17.57,7.34-21.12,16.59-6.2,16.16-4.62,31.8,5.16,45.76,8.81,12.57,27.12,16.93,36.69,7.4,6.81,5.85,12.99,5.09,17.59-2.95,2.32-4.05,4.09-8.78,4.9-13.45,4.08-23.46,4.79-47.22,4.26-71.02-.06-2.66-1.4-5.74-3.03-7.82Z"/><path class="cls-4" d="m226.66,177.58c-21.41-.19-38.38,17.18-38.62,39.55-.24,22.01,13.77,37.34,34.32,37.56,21.32.23,36.5-16.19,36.82-39.84.29-21.16-13.63-37.11-32.52-37.28Zm4.33,50.66c-4.9,4.83-12.37,3.95-15.71-2.18-3.51-6.47-3.54-13.27-.1-19.82,2.58-4.91,7.3-7.34,11.68-6.28,5.02,1.21,7.51,5.05,8.54,10.17.3,1.48.35,3.02.45,3.97-.14,5.72-1.15,10.49-4.86,14.15Z"/><path class="cls-2" d="m297.12,177.29c-20.94.14-36.02,16.52-35.86,38.94.16,22.15,14.74,37.9,34.96,37.76,20.61-.14,35.3-17.02,35.03-40.25-.24-20.8-15.02-36.58-34.13-36.45Zm11.41,38.35c-.19,1.84-.5,3.67-1.06,5.52-.34,1.11-.77,2.23-1.33,3.36-1.88,3.8-5.22,5.84-9.47,5.74-.04,0-.07,0-.11,0-.08,0-.15.01-.23,0-4.13-.1-7.11-2.32-9-6.14-2.48-5.02-2.79-10.32-1.13-15.7,1.72-5.57,5.84-9,10.58-9.04.32-.01.65-.01.98,0,5.04.26,8.97,3.98,10.34,9.92.23,1,.4,1.71.47,2.85.05.84.05,1.91-.03,3.5Z"/><path class="cls-3" d="m114.2,3c.4,0,.81.05,1.24.16,2.57.65,5.95,2.72,6.78,5.06,1.39,3.92,2.08,8.83,1.18,12.83-.9,3.99-2.2,7.88-3.59,11.74,6.01-3.36,12.4-5.06,19.17-5.06,4.5,0,9.18.75,14.02,2.27,1.6.5,3.43,1.05,4.56,2.23,2.25,2.35,4.47,3.2,6.93,3.2,1.78,0,3.68-.45,5.8-1.09,3.23-.98,6.32-1.46,9.28-1.46,10.22,0,18.74,5.75,24.93,16.45,9.51-3.55,18.9-5.92,28.07-5.92,11.69,0,23.04,3.84,33.84,13.92,10.52-6.86,21.66-10.55,33-10.55,6.03,0,12.12,1.04,18.21,3.2,4.75-5.89,8.51-11.83,13.41-16.36,6.88-6.36,15.98-9.53,25.09-9.53,7.03,0,14.07,1.88,20.12,5.64,8.34,5.18,13.13,12.76,14.18,23.05.11,1.07.29,2.14.48,3.51,2.52-1.03,5.04-1.89,7.57-2.59-1.04-7.41-.14-14.32,3.49-20.54,1.72-2.96,4.75-5.68,7.76-7.01,1.14-.5,2.26-.73,3.33-.73,4.66,0,8.31,4.39,7.51,10.06-.46,3.27-1.87,6.72-3.75,9.35-2,2.79-4.37,5.05-7.03,6.92,1.23-.08,2.46-.13,3.7-.13.29,0,.58,0,.87,0,6.25-7.72,13.55-13.79,23.28-15.78.73-.15,1.5-.22,2.26-.22,1.05,0,2.1.12,3.1.33,3.25.68,6.25,2.68,6.4,6.27.12,2.83-.8,6.89-2.66,8.38-3.13,2.51-7.33,4.58-11.16,4.74-.6.03-1.21.03-1.81.03,11.33,4.07,20.97,10.97,27.28,22.74,7.87,14.68,5.58,31.9-5.4,44.22-.44.49-.86,1-1.27,1.47,7.47,13.21,3.79,25.24-3.77,33.57,2.2-.59,4.45-.93,6.78-.93.06,0,.12,0,.19,0,3.15.02,6.47.68,9.39,1.93,3.51,1.5,5.33,4.8,4.85,9.06-.48,4.26-3.02,6.76-6.73,7.6-1.55.35-3.18.56-4.8.56-.85,0-1.69-.06-2.51-.18-7.11-1.09-13.22-4.61-19.49-9.05-1.91.92-3.88,1.71-5.88,2.31,5.42,1.54,10.43,3.49,14.76,7.12,2.4,2.01,4.59,4.54,6.22,7.29,1.92,3.24,1.86,6.98-.35,10.21-1.71,2.5-4.09,3.97-6.62,3.97-.87,0-1.76-.17-2.65-.54-3.48-1.44-7.16-3.59-9.53-6.55-2.96-3.71-4.79-7.99-5.98-12.7.22,18.88-1.24,37.65-5.58,55.98-1.98,8.37-5.25,16.6-9.13,24.2-4.95,9.71-13.24,15.67-23.41,17.74-5.73,1.17-11.34,1.8-16.81,1.8-15.94,0-30.7-5.32-43.74-17.95-11.76,8.52-23.49,12.97-35.21,12.97s-23.62-4.54-35.41-14.01c-9.96,9.55-23.82,14.39-37.69,14.39-12.58,0-25.18-3.99-34.85-12.05-6.26,8.18-14.33,12.85-24.31,13.57-.99.07-1.97.11-2.94.11-8.7,0-16.53-2.9-23.33-8.93-.43.14-.75.13-.89.3-6.41,8.02-15.82,11.99-25.67,11.99-11.1,0-22.77-5.04-31.34-15.01-3.58-4.16-6.83-8.78-9.51-13.65-9.03-16.42-15.53-34.01-18.28-52.87-.06-.4-.09-.8-.14-1.2-1.08,3.24-2.52,6.35-4.51,9.25-3.44,5-7.85,8.47-13.72,9.36-.66.1-1.3.15-1.94.15-4.24,0-7.81-2.19-9.62-5.9-1.96-4.01-1.21-9.12,2.37-12.99,1.97-2.14,4.23-4.36,6.77-5.42,6.66-2.78,13.49-5.11,20.28-7.55.04-1.82.08-3.65.09-5.47-7.71,4.54-15.45,8.07-24.21,8.07-.48,0-.97-.01-1.46-.03-3.35-.15-7-1.18-9.87-2.99-6.78-4.28-6.77-12.96-.31-17.81,3.47-2.6,7.31-3.53,11.28-3.53,1.31,0,2.64.1,3.97.28,3.44.45,6.65,1.43,9.72,2.78-7.22-6.27-12.77-14.3-17.64-23.01-9-16.12-15.8-33.13-17.78-52.06-2.76-26.5,7.57-45.07,30.81-54.6,4.44-1.82,9.13-3.4,13.83-3.95,1.92-.23,3.8-.34,5.64-.34,11.69,0,21.63,4.75,28.62,16.57,4.55-2.28,9.16-3.48,13.86-3.55-3.17-1.53-6.01-3.69-8.46-6.61-2.18-2.59-3.78-6.46-4.14-9.93-.57-5.53,3.09-9.53,7.6-9.53,1.21,0,2.48.29,3.74.91,2.8,1.38,5.51,3.78,7.34,6.44,3.7,5.38,5.43,11.57,5.77,18.5.06-.05.13-.11.18-.16,1.27-1.29,2.57-2.46,3.88-3.57-3.97-7.51-6.38-15.56-5.61-24.63.16-1.88.78-3.81,1.58-5.51,1.31-2.76,3.46-5.04,6.14-5.04M114.2,0h0c-3.59,0-6.82,2.46-8.85,6.75-.73,1.53-1.64,3.9-1.86,6.54-.19,2.25-.2,4.5-.03,6.74-2.02-2.41-4.57-4.46-7.21-5.76-1.64-.81-3.34-1.22-5.06-1.22-2.98,0-5.72,1.22-7.73,3.45-2.21,2.45-3.23,5.79-2.86,9.39.42,4.08,2.27,8.51,4.83,11.55.85,1.01,1.75,1.95,2.7,2.82-1.56.42-3.12.95-4.66,1.6-7.03-10.45-17.03-15.75-29.75-15.75-1.92,0-3.94.12-5.99.36-4.29.5-8.93,1.82-14.62,4.15-12.18,5-21.14,12.48-26.63,22.24C1.03,62.56-.99,74.48.45,88.33c1.81,17.39,7.58,34.29,18.14,53.21,3.46,6.19,6.9,11.36,10.49,15.74-1.37-.16-2.69-.25-3.93-.25-5.1,0-9.38,1.35-13.08,4.13-4,3-6.18,7.35-6,11.93.18,4.38,2.55,8.32,6.51,10.82,3.19,2.01,7.32,3.27,11.34,3.45.53.02,1.06.04,1.59.04.36,0,.72,0,1.07-.02-2.34,1.36-4.36,3.35-6.2,5.35-4.31,4.67-5.44,11.08-2.86,16.34,2.32,4.75,6.93,7.58,12.32,7.58.79,0,1.59-.06,2.39-.18,6.24-.95,11.54-4.52,15.74-10.63.23-.33.45-.67.67-1.02,3.17,15.32,8.92,30.61,17.15,45.59,2.72,4.95,6.04,9.72,9.87,14.16,8.77,10.2,21.02,16.05,33.61,16.05,10.51,0,19.85-4.03,26.55-11.39,6.81,5.33,14.65,8.04,23.35,8.04,1.03,0,2.09-.04,3.15-.12,9.7-.7,17.94-4.87,24.55-12.4,9.54,7.04,21.63,10.88,34.39,10.88,14.24,0,27.88-4.88,37.84-13.47,11.49,8.69,23.34,13.09,35.27,13.09s23.2-4.07,34.94-12.11c12.5,11.34,27.3,17.09,44.01,17.09,5.52,0,11.38-.62,17.41-1.86,11.41-2.33,20.22-9.01,25.48-19.32,4.32-8.46,7.47-16.83,9.37-24.87,3.16-13.35,4.98-27.55,5.51-43.11.25.35.51.68.78,1.02,2.97,3.72,7.47,6.1,10.73,7.45,1.23.51,2.51.77,3.8.77,3.48,0,6.8-1.93,9.09-5.28,2.83-4.14,3-9.16.46-13.44-.85-1.43-1.83-2.81-2.93-4.11,1.38.4,2.81.72,4.28.94.94.15,1.94.22,2.96.22,1.77,0,3.6-.21,5.46-.64,5.15-1.17,8.44-4.89,9.04-10.19.63-5.56-1.85-10.1-6.65-12.16-3.21-1.37-6.96-2.15-10.55-2.18h-.21s-.1,0-.14,0c5.34-9.04,5.65-19.32.74-29.23,11.8-13.33,14.04-31.97,5.7-47.52-4.75-8.86-11.48-15.59-20.43-20.4,1.86-.88,3.68-2.02,5.36-3.36,3.01-2.42,3.91-7.81,3.78-10.85-.19-4.51-3.56-7.99-8.78-9.08-1.26-.26-2.51-.4-3.72-.4-1,0-1.96.09-2.87.28-5.08,1.04-9.76,3.11-14.23,6.34.33-1.11.58-2.23.73-3.34.53-3.71-.46-7.32-2.7-9.9-2.01-2.31-4.77-3.58-7.78-3.58-1.53,0-3.05.33-4.54.98-3.6,1.58-7.1,4.74-9.14,8.24-3.37,5.79-4.76,12.47-4.15,19.89-.62.19-1.23.4-1.84.61-1.2-10.91-6.43-19.31-15.55-24.97-6.42-3.98-13.92-6.09-21.7-6.09-10.29,0-19.93,3.67-27.13,10.33-3.53,3.26-6.4,7.09-9.45,11.14-.96,1.28-1.95,2.6-2.97,3.9-5.66-1.78-11.42-2.69-17.17-2.69-11.08,0-22.07,3.29-32.68,9.8-10.16-8.86-21.36-13.17-34.16-13.17-7.99,0-16.78,1.72-26.79,5.26-6.69-10.34-15.71-15.79-26.21-15.79-3.26,0-6.68.54-10.15,1.59-2.21.67-3.68.96-4.92.96s-2.84-.27-4.76-2.27c-1.64-1.71-3.9-2.42-5.71-2.98l-.12-.04c-5.1-1.6-10.12-2.41-14.92-2.41-4.86,0-9.58.83-14.12,2.46.54-1.78,1.05-3.62,1.47-5.48.94-4.16.46-9.57-1.27-14.49-1.34-3.79-6.04-6.24-8.86-6.96C115.53.08,114.86,0,114.2,0h0Z"/></svg>